<?xml version="1.0" encoding="utf-8"?>
<!-- Generator: Adobe Illustrator 16.2.1, SVG Export Plug-In . SVG Version: 6.00 Build 0)  -->
<!DOCTYPE svg PUBLIC "-//W3C//DTD SVG 1.1//EN" "http://www.w3.org/Graphics/SVG/1.1/DTD/svg11.dtd">
<svg version="1.1" id="Layer_1" xmlns="http://www.w3.org/2000/svg" xmlns:xlink="http://www.w3.org/1999/xlink" x="0px" y="0px"
	 width="83px" height="82px" viewBox="0 0 83 82" enable-background="new 0 0 83 82" xml:space="preserve">
<g>
	<g>
		<path fill="#493D34" d="M-284.801,117.375c-0.584-0.348-1.167-1.178-1.295-1.845l-1.443-5.753
			c-0.224-0.642-0.103-1.631,0.27-2.199l2.495-3.807c0.373-0.568,0.36-1.489-0.028-2.048l-3.42-4.916
			c-0.388-0.559-1.247-0.889-1.908-0.735l-4.751,1.104c-0.662,0.153-1.669-0.024-2.238-0.395l-4.899-2.854
			c-0.618-0.282-1.248-1.055-1.4-1.717l-0.949-4.129c-0.152-0.662-0.823-1.305-1.491-1.428l-5.855-1.075
			c-0.668-0.123-1.523,0.239-1.899,0.805l-2.493,3.742c-0.376,0.565-1.236,1.101-1.909,1.189l-5.613,1.231
			c-0.653,0.188-1.645,0.024-2.203-0.362l-3.725-2.576c-0.559-0.387-1.476-0.391-2.037-0.009l-4.902,3.333
			c-0.562,0.382-0.893,1.235-0.736,1.896l1.102,4.632c0.157,0.661-0.044,1.649-0.447,2.196l-3.1,4.967
			c-0.317,0.602-1.123,1.199-1.79,1.328l-4.548,0.884c-0.667,0.129-1.313,0.782-1.435,1.45l-1.07,5.859
			c-0.122,0.668,0.25,1.508,0.827,1.867l4.148,2.578c0.577,0.359,1.137,1.201,1.243,1.872l1.355,5.771
			c0.206,0.647,0.062,1.637-0.319,2.198l-2.451,3.609c-0.381,0.562-0.382,1.481,0,2.044l3.343,4.929
			c0.381,0.562,1.234,0.893,1.895,0.734l4.549-1.093c0.661-0.158,1.649,0.042,2.196,0.444l5.098,3.176
			c0.602,0.315,1.199,1.12,1.328,1.787l0.845,4.384c0.129,0.667,0.78,1.315,1.448,1.441l5.852,1.101
			c0.667,0.126,1.506-0.244,1.862-0.823l2.493-4.042c0.356-0.579,1.198-1.138,1.869-1.243l5.81-1.352
			c0.648-0.205,1.638-0.062,2.201,0.319l3.694,2.503c0.562,0.381,1.482,0.379,2.043-0.005l4.915-3.358
			c0.561-0.384,0.892-1.238,0.735-1.899l-1.098-4.625c-0.157-0.661,0.072-1.628,0.508-2.149l3.386-5.028
			c0.355-0.579,1.194-1.147,1.864-1.264l4.885-0.848c0.669-0.116,1.318-0.758,1.441-1.426l1.077-5.856
			c0.123-0.668-0.254-1.499-0.838-1.847L-284.801,117.375z M-307.939,138.298c-0.416,1.343-0.663,1.493-1.268,1.449
			c-4.255-0.304-11.544-1.739-17.02-3.074c-0.46-0.11-0.73-0.62-0.67-1.843c0.022-0.542,5.059-26.666,5.059-26.666
			c0.128-0.667,0.289-1.393,0.357-1.612s0.988-1.069,1.525-1.486l1.298-1.01c0.537-0.417,1.091-0.846,1.233-0.951
			s0.348-0.682,0.408-1.019c0.06-0.338-0.015-0.767-0.167-0.954c0,0,0,0,0.006-0.169c0.004-0.06,0.396-3.467,0.775-3.596
			c0.888-0.301,5.363,0.506,6.185,1.152c0.376,0.295-0.355,3.561-0.379,3.646c-0.054,0.183-0.054,0.183-0.054,0.183
			c-0.214,0.115-0.438,0.481-0.497,0.813s-0.067,0.726-0.018,0.875s0.593,0.858,1.024,1.384l5.384,6.558
			c0.431,0.525,0.888,1.146,1.015,1.378s0.029,1.516-0.09,2.185C-303.833,115.541-307.795,137.822-307.939,138.298z"/>
	</g>
</g>
<g>
	<g>
		<path fill="#493D34" d="M-325.341,254.734c-0.039-0.014-0.068-0.003-0.063,0.023c0.004,0.027,0.031,0.064,0.054,0.02
			c0,0,0,0,0.01-0.045C-325.341,254.734-325.341,254.734-325.341,254.734z"/>
	</g>
	<g>
		<polygon fill="#493D34" points="-325.417,254.705 -325.422,254.704 -325.417,254.709 		"/>
	</g>
	<g>
		<path fill="#493D34" d="M-309.185,257.689c-0.001-0.005-0.004-0.003-0.005,0.004c-0.001,0.006,0.001,0.012,0.005,0.012
			C-309.181,257.706-309.183,257.693-309.185,257.689z"/>
	</g>
	<g>
		<path fill="#493D34" d="M-325.386,254.971c0.009-0.046,0.009-0.046,0.009-0.046c-0.009-0.036-0.017-0.063-0.019-0.06
			C-325.397,254.868-325.393,254.916-325.386,254.971L-325.386,254.971z"/>
	</g>
	<g>
		<path fill="#493D34" d="M-325,254.707c0-0.001,0-0.004,0-0.006c0-0.003-0.286-0.057-0.376-0.119s-1.058-0.259-1.738-0.384
			l-2.964-0.535c-0.68-0.125-1.412-0.292-1.593-0.37s-0.374,0.409-0.304,0.633s0.995,0.567,1.674,0.692l2.909,0.535
			c0.68,0.125,1.375,0.188,1.547,0.14s0.656-0.453,0.65-0.492S-325,254.708-325,254.707z"/>
	</g>
	<g>
		<path fill="#493D34" d="M-303.42,259.015c0.008-0.044,0.008-0.044,0.008-0.044c0.001-0.038,0-0.062-0.003-0.052
			S-303.423,258.981-303.42,259.015C-303.419,259.014-303.419,259.014-303.42,259.015z"/>
	</g>
	<g>
		<g>
			<path fill="#493D34" d="M-287.973,255.308c-0.588-0.363-1.16-1.219-1.271-1.901l-1.364-5.808c-0.21-0.658-0.066-1.667,0.32-2.24
				l2.605-3.876c0.386-0.573,0.38-1.509-0.012-2.078l-3.445-4.99c-0.393-0.569-1.265-0.906-1.938-0.749l-4.815,1.124
				c-0.673,0.157-1.683-0.045-2.244-0.448l-4.984-3.076c-0.614-0.317-1.234-1.131-1.377-1.807l-0.946-4.467
				c-0.143-0.676-0.817-1.332-1.497-1.457l-5.961-1.097c-0.68-0.125-1.542,0.248-1.917,0.829l-2.619,4.065
				c-0.375,0.581-1.24,1.144-1.923,1.25l-5.753,1.337c-0.66,0.206-1.668,0.057-2.24-0.331l-3.79-2.575
				c-0.572-0.388-1.507-0.387-2.078,0.004l-4.998,3.42c-0.571,0.391-0.907,1.261-0.748,1.934l1.12,4.73
				c0.159,0.673-0.046,1.68-0.456,2.236l-3.159,5.066c-0.322,0.612-1.142,1.221-1.82,1.353l-4.631,0.902
				c-0.679,0.132-1.335,0.797-1.459,1.477l-1.089,5.963c-0.124,0.68,0.255,1.535,0.842,1.9l4.22,2.626
				c0.587,0.365,1.156,1.223,1.265,1.905l1.382,5.873c0.21,0.659,0.063,1.666-0.325,2.238l-2.495,3.674
				c-0.389,0.572-0.389,1.508-0.001,2.08l3.403,5.018c0.388,0.572,1.256,0.908,1.928,0.747l4.63-1.112
				c0.672-0.161,1.678,0.043,2.235,0.452l5.188,3.231c0.612,0.322,1.22,1.141,1.351,1.819l0.859,4.462
				c0.131,0.679,0.794,1.339,1.473,1.467l5.956,1.121c0.679,0.128,1.532-0.249,1.896-0.838l2.538-4.115
				c0.363-0.589,1.219-1.158,1.902-1.266l5.913-1.375c0.659-0.208,1.667-0.062,2.24,0.326l3.761,2.545
				c0.572,0.388,1.508,0.386,2.079-0.004l5.004-3.418c0.571-0.39,0.907-1.26,0.748-1.933l-1.118-4.707
				c-0.16-0.673,0.048-1.677,0.463-2.23l3.212-5.104c0.328-0.609,1.151-1.214,1.83-1.344l4.632-0.888
				c0.679-0.13,1.337-0.793,1.462-1.473l1.096-5.959c0.125-0.68-0.254-1.533-0.842-1.896L-287.973,255.308z M-302.858,269.889
				c-0.125,0.68-0.238,1.512-0.251,1.848s-1.152,0.403-1.832,0.278l-30.107-5.539c-0.68-0.125-1.312-0.398-1.405-0.606
				c-0.093-0.209,0.029-1.453,0.154-2.133l3.158-17.174c0.125-0.68,0.235-1.203,0.244-1.163s0.787,0.215,1.235,0.297
				s0.74-0.078,0.65-0.355s-0.072-1.006,0.001-1.403c0.073-0.396,0.376-0.826,0.674-0.956s1.481-0.061,2.161,0.064l1.812,0.332
				c0.68,0.125,1.393,0.313,1.583,0.418s0.212,0.918,0.139,1.314s-0.192,0.966-0.265,1.263c-0.072,0.298,0.601,0.677,1.28,0.802
				l14.998,2.759c0.68,0.125,1.26,0.018,1.288-0.238s0.144-0.966,0.216-1.362s0.287-0.844,0.476-0.993s1.248-0.104,1.928,0.021
				l1.813,0.334c0.68,0.125,1.131,0.26,1.003,0.3s-0.371,0.822-0.443,1.219c-0.073,0.396,0.07,1.012,0.316,1.368
				s0.964,0.743,1.38,0.819s0.869,0.027,1.007-0.107c0.138-0.136,0.071,0.74-0.054,1.42L-302.858,269.889z"/>
		</g>
	</g>
	<g>
		<path fill="#493D34" d="M-303.375,258.775c-0.021-0.007-0.038,0.008-0.036,0.032s0.012,0.057,0.026,0.011
			C-303.385,258.818-303.385,258.818-303.375,258.775L-303.375,258.775z"/>
	</g>
	<g>
		<path fill="#493D34" d="M-303.457,258.75c-0.002,0-0.003-0.005-0.002-0.011s0.002-0.008,0.003-0.003
			c0.001,0.004,0.007,0.016,0.012,0.018s0-0.037-0.036-0.096c-0.036-0.058-0.619-0.205-1.059-0.286s-0.711-0.628-0.603-1.216
			s0.185-1.301,0.169-1.585c0,0,0,0-0.354-0.065c-0.356-0.064-0.356-0.064-0.356-0.064c-0.12,0.259-0.306,0.951-0.414,1.539
			c-0.108,0.587-0.659,0.982-1.224,0.879c-0.565-0.103-1.151-0.194-1.303-0.203s-0.339,0.383-0.27,0.575s0.832,0.479,1.396,0.583
			s0.964,0.53,0.888,0.947s-0.124,0.99-0.104,1.275c0,0,0,0,0.355,0.066c0.354,0.062,0.354,0.062,0.354,0.062
			c0.115-0.259,0.272-0.812,0.349-1.229s0.5-0.691,0.939-0.61s0.889,0.097,0.998,0.035s0.285-0.444,0.278-0.489
			S-303.455,258.75-303.457,258.75z"/>
	</g>
</g>
<g>
	<g>
		<path fill="#493D34" d="M66.082,34.299c-0.562-0.341-1.114-1.149-1.227-1.796l-1.339-5.536c-0.207-0.624-0.079-1.581,0.285-2.128
			l2.447-3.681c0.364-0.547,0.355-1.437-0.019-1.977l-3.287-4.745c-0.374-0.54-1.203-0.86-1.843-0.711l-4.582,1.067
			c-0.64,0.149-1.595-0.049-2.123-0.439l-4.743-2.973c-0.579-0.309-1.163-1.089-1.296-1.731l-0.898-4.32
			c-0.134-0.643-0.771-1.266-1.417-1.385l-5.66-1.041c-0.646-0.119-1.463,0.237-1.817,0.791l-2.511,3.934
			c-0.354,0.554-1.173,1.093-1.821,1.199l-5.475,1.291c-0.625,0.2-1.583,0.062-2.127-0.306L23.03,7.383
			c-0.544-0.368-1.433-0.365-1.975,0.007l-4.751,3.255c-0.542,0.372-0.861,1.198-0.71,1.837l1.062,4.5
			c0.151,0.639-0.044,1.595-0.433,2.124l-3,4.812c-0.307,0.581-1.084,1.159-1.729,1.285l-4.398,0.858
			c-0.645,0.126-1.269,0.758-1.386,1.404l-1.034,5.662c-0.118,0.646,0.242,1.459,0.799,1.806l4.008,2.497
			c0.558,0.347,1.098,1.162,1.202,1.811l1.311,5.577c0.199,0.626,0.061,1.583-0.309,2.126l-2.369,3.489
			c-0.369,0.543-0.369,1.433,0,1.976l3.231,4.764c0.369,0.543,1.193,0.863,1.832,0.71l4.398-1.055
			c0.639-0.153,1.594,0.041,2.123,0.43l4.929,3.069c0.582,0.305,1.159,1.083,1.283,1.728l0.815,4.238
			c0.124,0.646,0.754,1.272,1.399,1.394l5.657,1.062c0.646,0.121,1.456-0.236,1.801-0.796l2.41-3.908
			c0.345-0.56,1.158-1.1,1.807-1.201l5.617-1.307c0.626-0.198,1.583-0.058,2.127,0.31l3.57,2.42
			c0.543,0.368,1.432,0.367,1.974-0.004l4.753-3.248c0.542-0.371,0.862-1.197,0.71-1.836l-1.061-4.469
			c-0.151-0.639,0.057-1.584,0.463-2.101l3.149-4.857c0.326-0.57,1.122-1.133,1.768-1.251l4.541-0.832
			c0.646-0.118,1.272-0.743,1.391-1.389l1.042-5.661c0.119-0.646-0.243-1.453-0.805-1.794L66.082,34.299z M39.112,23.84
			c-0.121,0.646-0.27,1.273-0.331,1.396s-0.881,0.077-1.421-0.024s-1.056-0.179-1.146-0.173s-0.484,0.253-0.744,0.451
			s-0.503,0.415-0.542,0.481s0.142,0.461,0.312,0.738s0.318,0.565,0.33,0.641s-0.305,0.372-0.567,0.561s-0.508,0.397-0.547,0.463
			s0.14,0.461,0.311,0.737s0.32,0.565,0.331,0.641s-0.299,0.378-0.558,0.574s-0.501,0.411-0.54,0.478s0.142,0.463,0.312,0.741
			s0.318,0.567,0.33,0.643s-0.299,0.381-0.558,0.578s-0.502,0.413-0.541,0.479s0.14,0.466,0.311,0.746s0.319,0.572,0.33,0.647
			s-0.3,0.383-0.56,0.58s-0.503,0.413-0.541,0.479s0.142,0.465,0.312,0.744s0.319,0.569,0.33,0.645s-0.3,0.381-0.561,0.579
			s-0.504,0.415-0.542,0.481s0.142,0.465,0.313,0.745s0.319,0.571,0.331,0.647s-0.3,0.381-0.56,0.581s-0.505,0.419-0.543,0.485
			s0.141,0.465,0.312,0.745s0.319,0.571,0.33,0.646s-0.301,0.383-0.561,0.582s-0.503,0.417-0.541,0.484s0.142,0.463,0.312,0.743
			s0.32,0.572,0.331,0.648s-0.3,0.385-0.562,0.585s-0.505,0.419-0.543,0.485s0.142,0.466,0.312,0.744s0.319,0.569,0.331,0.646
			s-0.299,0.382-0.56,0.582s-0.504,0.419-0.542,0.486s0.14,0.466,0.31,0.749s0.318,0.576,0.329,0.652s-0.301,0.384-0.562,0.586
			s-0.542,0.402-0.625,0.444s-0.823,0.107-1.479,0.136l-2.417,0.108c-0.656,0.029-1.262,0.035-1.347,0.013s-0.367-0.341-0.532-0.574
			s-0.312-0.485-0.326-0.56s0.293-0.382,0.553-0.584s0.503-0.422,0.542-0.489s-0.14-0.467-0.31-0.748s-0.318-0.573-0.329-0.648
			s0.301-0.385,0.561-0.585s0.503-0.418,0.541-0.485s-0.141-0.464-0.311-0.743s-0.318-0.57-0.329-0.646s0.299-0.385,0.558-0.584
			s0.501-0.417,0.539-0.484s-0.14-0.465-0.309-0.744s-0.315-0.569-0.327-0.646s0.299-0.386,0.559-0.585s0.503-0.417,0.541-0.484
			s-0.142-0.465-0.312-0.744s-0.317-0.569-0.329-0.646s0.299-0.385,0.559-0.585s0.503-0.419,0.541-0.486s-0.141-0.464-0.311-0.744
			s-0.317-0.571-0.328-0.646s0.299-0.383,0.558-0.581s0.502-0.414,0.54-0.48s-0.14-0.465-0.31-0.741s-0.318-0.565-0.33-0.641
			s0.299-0.384,0.559-0.583s0.502-0.416,0.54-0.482s-0.141-0.465-0.311-0.744s-0.318-0.57-0.329-0.646s0.299-0.381,0.558-0.58
			s0.501-0.416,0.539-0.482s-0.141-0.463-0.311-0.741s-0.318-0.567-0.329-0.643s0.299-0.38,0.558-0.576s0.501-0.411,0.539-0.479
			s-0.14-0.462-0.31-0.738s-0.317-0.564-0.328-0.64s0.297-0.381,0.555-0.576s0.5-0.41,0.537-0.477s-0.137-0.455-0.302-0.723
			s-0.312-0.55-0.326-0.629s0.23-0.402,0.428-0.6s0.373-0.403,0.391-0.456s-0.63-0.211-1.277-0.326l-0.296-0.052
			c-0.647-0.114-1.277-0.25-1.399-0.302s-0.058-0.982,0.064-1.627l0.385-2.036c0.122-0.646,0.258-1.271,0.303-1.389
			s0.999-0.066,1.645,0.051l9.158,1.671c0.646,0.118,1.275,0.258,1.397,0.311s0.06,0.98-0.061,1.626L39.112,23.84z M49.411,52.461
			c-0.122,0.645-0.258,1.271-0.302,1.39s-0.999,0.067-1.645-0.05l-9.16-1.673c-0.646-0.118-1.275-0.258-1.397-0.312
			s-0.058-0.981,0.062-1.627l0.358-1.92c0.12-0.646,0.269-1.273,0.331-1.395s0.882-0.075,1.421,0.026s1.055,0.179,1.146,0.173
			s0.483-0.255,0.744-0.453s0.504-0.414,0.542-0.48s-0.142-0.461-0.312-0.739s-0.319-0.566-0.33-0.641s0.305-0.371,0.567-0.56
			s0.508-0.397,0.547-0.462c0.039-0.065-0.141-0.46-0.312-0.737s-0.319-0.565-0.331-0.641s0.299-0.381,0.559-0.577
			c0.259-0.196,0.501-0.411,0.539-0.477s-0.141-0.464-0.312-0.741c-0.17-0.277-0.318-0.566-0.33-0.642s0.299-0.379,0.558-0.577
			c0.26-0.198,0.503-0.414,0.541-0.481s-0.142-0.464-0.312-0.745s-0.318-0.573-0.329-0.648s0.3-0.38,0.56-0.578
			s0.502-0.414,0.54-0.48s-0.14-0.466-0.311-0.744s-0.32-0.568-0.331-0.645s0.3-0.383,0.56-0.581s0.504-0.415,0.542-0.481
			s-0.141-0.462-0.312-0.742s-0.32-0.572-0.331-0.648s0.3-0.382,0.561-0.581s0.505-0.417,0.543-0.484s-0.142-0.466-0.312-0.746
			s-0.318-0.571-0.329-0.646s0.299-0.382,0.56-0.581s0.504-0.416,0.542-0.483s-0.142-0.467-0.312-0.747s-0.32-0.572-0.331-0.647
			s0.3-0.384,0.562-0.584s0.505-0.419,0.543-0.486s-0.142-0.465-0.312-0.744s-0.319-0.569-0.33-0.645s0.299-0.383,0.56-0.583
			s0.504-0.418,0.542-0.484s-0.141-0.469-0.312-0.75s-0.318-0.574-0.328-0.65s0.3-0.387,0.561-0.588s0.542-0.4,0.626-0.442
			s0.824-0.109,1.48-0.138l2.417-0.108c0.656-0.029,1.262-0.035,1.347-0.012s0.366,0.34,0.531,0.573s0.312,0.485,0.327,0.56
			s-0.294,0.382-0.555,0.583s-0.504,0.421-0.542,0.489s0.141,0.466,0.311,0.747s0.317,0.574,0.328,0.65s-0.3,0.383-0.56,0.583
			s-0.502,0.418-0.54,0.485s0.141,0.466,0.311,0.745s0.318,0.57,0.329,0.646s-0.299,0.384-0.559,0.583s-0.502,0.417-0.539,0.484
			s0.141,0.465,0.31,0.744s0.316,0.569,0.327,0.646s-0.3,0.385-0.56,0.585s-0.503,0.419-0.54,0.485s0.142,0.463,0.311,0.743
			s0.317,0.571,0.328,0.647s-0.299,0.384-0.559,0.583s-0.502,0.417-0.54,0.484s0.141,0.465,0.311,0.745s0.317,0.572,0.328,0.648
			s-0.298,0.382-0.558,0.58s-0.503,0.414-0.541,0.481s0.14,0.462,0.311,0.739s0.318,0.567,0.329,0.644s-0.298,0.381-0.558,0.581
			s-0.502,0.417-0.54,0.483s0.141,0.464,0.311,0.744s0.318,0.57,0.329,0.646s-0.299,0.382-0.558,0.58s-0.501,0.414-0.539,0.481
			s0.141,0.463,0.311,0.741s0.318,0.568,0.329,0.644s-0.299,0.38-0.558,0.576s-0.501,0.411-0.539,0.478s0.141,0.462,0.31,0.738
			s0.317,0.564,0.328,0.64s-0.299,0.382-0.557,0.577s-0.499,0.41-0.536,0.477s0.137,0.455,0.302,0.723s0.311,0.55,0.325,0.629
			s-0.231,0.4-0.428,0.598s-0.372,0.403-0.39,0.456s0.63,0.213,1.277,0.328l0.296,0.052c0.647,0.114,1.276,0.25,1.399,0.303
			s0.057,0.981-0.065,1.626L49.411,52.461z"/>
	</g>
</g>
<g>
	<g>
		<path fill="#493D34" d="M-199.388,256.529c-0.567-0.359-1.109-1.199-1.204-1.864l-1.259-5.609c-0.192-0.644-0.04-1.625,0.34-2.18
			l2.575-3.769c0.379-0.555,0.378-1.462-0.002-2.017l-3.324-4.841c-0.38-0.555-1.228-0.883-1.882-0.729l-4.667,1.093
			c-0.654,0.154-1.649-0.023-2.21-0.393l-4.831-2.83c-0.61-0.281-1.23-1.048-1.378-1.704l-0.926-4.101
			c-0.148-0.656-0.81-1.292-1.471-1.414l-5.793-1.066c-0.661-0.122-1.506,0.236-1.877,0.797l-2.473,3.725
			c-0.372,0.561-1.221,1.091-1.887,1.18l-5.557,1.227c-0.646,0.187-1.626,0.027-2.179-0.355l-3.684-2.549
			c-0.553-0.383-1.459-0.386-2.016-0.008l-4.85,3.298c-0.556,0.378-0.884,1.223-0.729,1.877l1.088,4.583
			c0.155,0.654-0.044,1.632-0.442,2.174l-3.065,4.916c-0.314,0.595-1.11,1.186-1.77,1.314l-4.501,0.873
			c-0.66,0.129-1.298,0.774-1.419,1.436l-1.058,5.793c-0.121,0.661,0.247,1.493,0.818,1.848l4.103,2.553
			c0.571,0.354,1.124,1.188,1.23,1.853l1.34,5.707c0.204,0.641,0.062,1.62-0.315,2.177l-2.424,3.57
			c-0.377,0.557-0.377,1.467,0,2.022l3.307,4.874c0.377,0.556,1.221,0.883,1.875,0.726l4.5-1.077
			c0.654-0.157,1.631,0.041,2.172,0.439l5.042,3.14c0.595,0.312,1.186,1.108,1.313,1.769l0.836,4.337
			c0.127,0.66,0.772,1.302,1.433,1.426l5.789,1.09c0.661,0.124,1.49-0.242,1.843-0.814l2.466-3.999
			c0.353-0.572,1.185-1.126,1.849-1.23l5.747-1.337c0.641-0.202,1.621-0.06,2.177,0.317l3.655,2.475
			c0.556,0.377,1.466,0.375,2.021-0.004l4.863-3.322c0.555-0.379,0.882-1.225,0.727-1.879l-1.085-4.575
			c-0.155-0.654,0.03-1.642,0.412-2.195l2.975-4.954c0.294-0.604,1.074-1.209,1.732-1.343l4.282-0.875
			c0.658-0.134,1.297-0.785,1.418-1.446l1.064-5.792c0.122-0.661-0.243-1.497-0.811-1.856L-199.388,256.529z M-212.874,258.95
			c-1.116-1.32-3.786-4.458-3.786-4.458c-0.436-0.512-0.908-0.932-1.051-0.933s-0.79,0.23-1.304,0.663l-4.958,4.176
			c-0.514,0.433-0.639,1.251-0.278,1.818c0,0,3.729,5.855,4.105,6.188c1.532,1.359,2.102,0.317,4.205,2.637
			c1.503,1.655-0.451,6.15-0.451,6.15c-0.268,0.617-0.611,0.585-0.764-0.069c0,0-0.64-2.759-1.401-3.24
			c-1.872-1.186-4.088,0.509-4.395,1.346c-0.333,0.919,0.706,3.62,0.706,3.62c0.241,0.627,0.025,0.778-0.48,0.335
			c0,0-3.525-3.093-3.771-4.003c-0.54-2.005,0.731-2.512,0.197-3.923c-0.452-1.203-2.682-5.069-2.682-5.069
			c-0.336-0.582-1.032-0.704-1.546-0.271c0,0-10.095,8.498-11.362,9.549c-0.899,0.743-4.264-3.406-3.394-4.144
			c0.477-0.402,11.913-10.027,11.913-10.027c0.514-0.433,0.636-1.249,0.271-1.812c0,0-2.576-3.977-3.102-4.632
			c-1.455-1.821-2.979-2.484-3.751-2.857c-4.369-2.097-1.448-7.205-1.448-7.205c0.334-0.583,0.699-0.519,0.811,0.145
			c0,0,0.387,2.291,1.508,2.901c1.155,0.621,4.133-0.269,4.305-1.11c0.294-1.396-0.54-3.409-0.54-3.409
			c-0.257-0.621-0.031-0.795,0.503-0.386c0,0,3.273,2.506,3.623,4.23c0.207,1.015-0.81,2.721,0.379,4.562
			c0.217,0.336,2.388,3.835,2.388,3.835c0.354,0.571,1.065,0.684,1.58,0.251l4.552-3.83c0.515-0.433,0.982-0.884,1.04-1.003
			s-0.061-0.417-0.076-0.435c-0.015-0.017-0.058-0.138-0.095-0.269s0.505-0.781,0.993-1.244c0,0,0.483-0.458,1.096-0.964
			c0.55-0.459,1-0.781,1-0.781c0.546-0.392,1.206-0.765,1.465-0.829c0,0,0,0,0.139,0.164c0.139,0.167,0.353,0.218,0.593,0.028
			c0.288-0.229,0.848-0.771,1.205-0.73c0.479,0.05,1.903,3.796,1.903,3.796c0.239,0.629,0.527,1.228,0.64,1.331
			c0.113,0.103,0.26,0.868,0.683,1.391c0,0,2.719,3.361,3.669,4.51C-207.572,255.505-212.511,259.384-212.874,258.95z"/>
	</g>
</g>
</svg>
