<?xml version="1.0" encoding="utf-8"?>
<!-- Generator: Adobe Illustrator 16.2.1, SVG Export Plug-In . SVG Version: 6.00 Build 0)  -->
<!DOCTYPE svg PUBLIC "-//W3C//DTD SVG 1.1//EN" "http://www.w3.org/Graphics/SVG/1.1/DTD/svg11.dtd">
<svg version="1.1" id="Layer_1" xmlns="http://www.w3.org/2000/svg" xmlns:xlink="http://www.w3.org/1999/xlink" x="0px" y="0px"
	 width="22.033px" height="21.479px" viewBox="0 0 22.033 21.479" enable-background="new 0 0 22.033 21.479" xml:space="preserve">
<g>
	<path fill="#F5E9DA" d="M61.645,12.877C61.849,12.797,62,12.552,62,12.333v-1.921c0-0.219-0.15-0.464-0.354-0.544l-1.447-0.569
		c-0.204-0.08-0.426-0.314-0.5-0.521l-0.75-1.73c-0.103-0.193-0.114-0.517-0.026-0.717l0.593-1.357
		c0.087-0.201,0.032-0.492-0.123-0.647l-1.357-1.358c-0.155-0.155-0.446-0.21-0.647-0.123l-1.437,0.626
		c-0.201,0.087-0.531,0.09-0.733,0.005l-1.716-0.62c-0.212-0.054-0.457-0.263-0.543-0.464l-0.54-1.141
		C52.334,1.049,52.084,1,51.865,1h-1.92c-0.219,0-0.469,0.049-0.556,0.251l-0.572,1.276c-0.086,0.202-0.328,0.393-0.536,0.46
		l-1.71,0.707c-0.196,0.098-0.52,0.097-0.72,0.007l-1.331-0.604c-0.2-0.09-0.491-0.039-0.647,0.115l-1.361,1.342
		c-0.156,0.154-0.211,0.443-0.123,0.644l0.62,1.406c0.088,0.201,0.082,0.526-0.014,0.723l-0.693,1.757
		c-0.065,0.209-0.286,0.446-0.49,0.526l-1.392,0.546c-0.204,0.08-0.371,0.325-0.371,0.544l0.003,1.92
		c0,0.219,0.167,0.464,0.372,0.544l1.466,0.576c0.204,0.08,0.431,0.314,0.504,0.521l0.767,1.751
		c0.103,0.193,0.115,0.516,0.027,0.716l-0.566,1.289c-0.088,0.201-0.035,0.493,0.119,0.648l1.348,1.368
		c0.154,0.156,0.444,0.211,0.644,0.122l1.38-0.611c0.2-0.089,0.525-0.083,0.723,0.013l1.802,0.709
		c0.209,0.065,0.446,0.285,0.525,0.489l0.523,1.342c0.08,0.204,0.324,0.372,0.543,0.373l1.921,0.008
		c0.219,0.001,0.463-0.166,0.543-0.37l0.555-1.427c0.08-0.205,0.314-0.431,0.521-0.503l1.764-0.769
		c0.194-0.103,0.516-0.115,0.717-0.027l1.317,0.579c0.201,0.088,0.492,0.034,0.647-0.121l1.364-1.353
		c0.155-0.154,0.21-0.445,0.122-0.646l-0.618-1.404c-0.088-0.201-0.082-0.526,0.014-0.723l0.698-1.772
		c0.065-0.209,0.278-0.446,0.482-0.526L61.645,12.877z"/>
</g>
<path fill="#F5E9DA" d="M9.617,0.248c-0.214-0.002-0.4,0.038-0.486,0.234L8.594,1.725C8.508,1.92,8.286,2.105,8.082,2.169
	L6.414,2.85c-0.192,0.094-0.504,0.092-0.699,0L4.418,2.256C4.223,2.166,3.939,2.212,3.785,2.36L2.448,3.667
	C2.296,3.815,2.24,4.098,2.325,4.295l0.599,1.377c0.084,0.197,0.077,0.516-0.018,0.707L2.219,8.094
	C2.152,8.298,1.937,8.527,1.736,8.605L0.373,9.129c-0.2,0.077-0.364,0.318-0.364,0.531L0,11.538c0,0.215,0.162,0.455,0.36,0.534
	l1.43,0.572c0.198,0.079,0.419,0.31,0.489,0.513l0.74,1.714c0.102,0.189,0.11,0.508,0.023,0.701l-0.561,1.257
	c-0.088,0.194-0.037,0.482,0.112,0.636l1.31,1.342c0.151,0.153,0.434,0.211,0.631,0.125l1.352-0.592
	c0.196-0.086,0.514-0.078,0.706,0.016l1.757,0.706c0.205,0.063,0.435,0.281,0.512,0.482l0.505,1.313
	c0.076,0.199,0.198,0.363,0.412,0.366l0.761,0.008V0.254L9.617,0.248z"/>
</svg>
