<?xml version="1.0" encoding="utf-8"?>
<!-- Generator: Adobe Illustrator 16.2.1, SVG Export Plug-In . SVG Version: 6.00 Build 0)  -->
<!DOCTYPE svg PUBLIC "-//W3C//DTD SVG 1.1//EN" "http://www.w3.org/Graphics/SVG/1.1/DTD/svg11.dtd">
<svg version="1.1" id="Layer_1" xmlns="http://www.w3.org/2000/svg" xmlns:xlink="http://www.w3.org/1999/xlink" x="0px" y="0px"
	 width="49.033px" height="22.479px" viewBox="0 0 49.033 22.479" enable-background="new 0 0 49.033 22.479" xml:space="preserve">
<g>
	<path fill="#F5E9DA" d="M21.645,12.876C21.849,12.796,22,12.551,22,12.332v-1.92c0-0.219-0.15-0.464-0.354-0.544l-1.447-0.569
		c-0.204-0.08-0.426-0.314-0.5-0.521l-0.75-1.73c-0.103-0.193-0.114-0.517-0.026-0.717l0.593-1.357
		c0.087-0.201,0.032-0.492-0.123-0.647l-1.357-1.358c-0.155-0.155-0.446-0.21-0.647-0.123L15.953,3.47
		c-0.201,0.087-0.531,0.09-0.733,0.005l-1.716-0.62c-0.212-0.054-0.457-0.263-0.543-0.464l-0.54-1.474
		c-0.086-0.202-0.336-0.584-0.556-0.584h-1.92c-0.219,0-0.469,0.382-0.556,0.584L8.817,2.36C8.731,2.562,8.49,2.836,8.281,2.904
		l-1.71,0.748C6.375,3.75,6.051,3.77,5.852,3.68L4.521,3.086c-0.2-0.09-0.491-0.034-0.647,0.12L2.512,4.55
		C2.356,4.704,2.301,4.995,2.389,5.195l0.62,1.407c0.088,0.201,0.082,0.526-0.014,0.724L2.303,9.083
		c-0.065,0.209-0.286,0.446-0.49,0.526l-1.392,0.546c-0.204,0.08-0.371,0.325-0.371,0.544l0.003,1.92
		c0,0.219,0.167,0.464,0.372,0.544l1.466,0.576c0.204,0.08,0.431,0.314,0.504,0.521l0.767,1.751
		c0.103,0.193,0.115,0.516,0.027,0.716l-0.566,1.288c-0.088,0.201-0.035,0.493,0.119,0.648l1.348,1.368
		c0.154,0.156,0.444,0.211,0.644,0.123l1.38-0.611c0.2-0.088,0.525-0.083,0.723,0.013l1.802,0.709
		c0.209,0.065,0.446,0.285,0.525,0.489l0.523,1.342c0.08,0.204,0.324,0.372,0.543,0.373l1.921,0.007
		c0.219,0.001,0.463-0.166,0.543-0.37l0.555-1.427c0.08-0.205,0.314-0.431,0.521-0.503l1.764-0.769
		c0.194-0.103,0.516-0.115,0.717-0.026l1.317,0.579c0.201,0.088,0.492,0.034,0.647-0.12l1.364-1.353
		c0.155-0.154,0.21-0.445,0.122-0.646l-0.618-1.405c-0.088-0.201-0.082-0.526,0.014-0.723l0.698-1.771
		c0.065-0.209,0.278-0.446,0.482-0.526L21.645,12.876z"/>
</g>
<g>
	<path fill="#F5E9DA" d="M48.645,12.876C48.849,12.796,49,12.551,49,12.332v-1.92c0-0.219-0.15-0.464-0.354-0.544l-1.447-0.569
		c-0.204-0.08-0.426-0.314-0.5-0.521l-0.75-1.73c-0.103-0.193-0.114-0.517-0.026-0.717l0.593-1.357
		c0.087-0.201,0.032-0.492-0.123-0.647l-1.357-1.358c-0.155-0.155-0.446-0.21-0.647-0.123L42.953,3.47
		c-0.201,0.087-0.531,0.09-0.733,0.005l-1.716-0.62c-0.212-0.054-0.457-0.263-0.543-0.464l-0.54-1.474
		c-0.086-0.202-0.336-0.584-0.556-0.584h-1.92c-0.219,0-0.469,0.382-0.556,0.584L35.817,2.36c-0.086,0.202-0.328,0.476-0.536,0.543
		l-1.71,0.748c-0.196,0.098-0.52,0.118-0.72,0.028l-1.331-0.594c-0.2-0.09-0.491-0.034-0.647,0.12L29.512,4.55
		c-0.156,0.154-0.211,0.444-0.123,0.645l0.62,1.407c0.088,0.201,0.082,0.526-0.014,0.724l-0.693,1.757
		c-0.065,0.209-0.286,0.446-0.49,0.526l-1.392,0.546c-0.204,0.08-0.371,0.325-0.371,0.544l0.003,1.92
		c0,0.219,0.167,0.464,0.372,0.544l1.466,0.576c0.204,0.08,0.431,0.314,0.504,0.521l0.767,1.751
		c0.103,0.193,0.115,0.516,0.027,0.716l-0.566,1.288c-0.088,0.201-0.035,0.493,0.119,0.648l1.348,1.368
		c0.154,0.156,0.444,0.211,0.644,0.123l1.38-0.611c0.2-0.088,0.525-0.083,0.723,0.013l1.802,0.709
		c0.209,0.065,0.446,0.285,0.525,0.489l0.523,1.342c0.08,0.204,0.324,0.372,0.543,0.373l1.921,0.007
		c0.219,0.001,0.463-0.166,0.543-0.37l0.555-1.427c0.08-0.205,0.314-0.431,0.521-0.503l1.764-0.769
		c0.194-0.103,0.516-0.115,0.717-0.026l1.317,0.579c0.201,0.088,0.492,0.034,0.647-0.12l1.364-1.353
		c0.155-0.154,0.21-0.445,0.122-0.646l-0.618-1.405c-0.088-0.201-0.082-0.526,0.014-0.723l0.698-1.771
		c0.065-0.209,0.278-0.446,0.482-0.526L48.645,12.876z"/>
</g>
</svg>
