<?xml version="1.0" encoding="utf-8"?>
<!-- Generator: Adobe Illustrator 16.2.1, SVG Export Plug-In . SVG Version: 6.00 Build 0)  -->
<!DOCTYPE svg PUBLIC "-//W3C//DTD SVG 1.1//EN" "http://www.w3.org/Graphics/SVG/1.1/DTD/svg11.dtd">
<svg version="1.1" id="Layer_1" xmlns="http://www.w3.org/2000/svg" xmlns:xlink="http://www.w3.org/1999/xlink" x="0px" y="0px"
	 width="22.033px" height="21.479px" viewBox="0 0 22.033 21.479" enable-background="new 0 0 22.033 21.479" xml:space="preserve">
<g>
	<path fill="#F5E9DA" d="M21.645,11.877C21.849,11.797,22,11.552,22,11.333V9.412c0-0.219-0.15-0.464-0.354-0.544l-1.447-0.569
		c-0.204-0.08-0.426-0.314-0.5-0.521l-0.75-1.73c-0.103-0.193-0.114-0.517-0.026-0.717l0.593-1.357
		c0.087-0.201,0.032-0.492-0.123-0.647l-1.357-1.358c-0.155-0.155-0.446-0.21-0.647-0.123l-1.437,0.626
		c-0.201,0.087-0.531,0.09-0.733,0.005l-1.716-0.62c-0.212-0.054-0.457-0.263-0.543-0.464l-0.54-1.141
		C12.334,0.049,12.084,0,11.865,0h-1.92C9.726,0,9.476,0.049,9.39,0.251L8.817,1.527C8.731,1.729,8.49,1.92,8.281,1.988l-1.71,0.707
		c-0.196,0.098-0.52,0.097-0.72,0.007L4.521,2.097c-0.2-0.09-0.491-0.039-0.647,0.115L2.512,3.553
		C2.356,3.707,2.301,3.997,2.389,4.197l0.62,1.406c0.088,0.201,0.082,0.526-0.014,0.723L2.303,8.083
		c-0.065,0.209-0.286,0.446-0.49,0.526L0.421,9.155C0.217,9.235,0.05,9.48,0.05,9.699l0.003,1.92c0,0.219,0.167,0.464,0.372,0.544
		l1.466,0.576c0.204,0.08,0.431,0.314,0.504,0.521l0.767,1.751c0.103,0.193,0.115,0.516,0.027,0.716l-0.566,1.289
		c-0.088,0.201-0.035,0.493,0.119,0.648l1.348,1.368c0.154,0.156,0.444,0.211,0.644,0.122l1.38-0.611
		c0.2-0.089,0.525-0.083,0.723,0.013l1.802,0.709c0.209,0.065,0.446,0.285,0.525,0.489l0.523,1.342
		c0.08,0.204,0.324,0.372,0.543,0.373l1.921,0.008c0.219,0.001,0.463-0.166,0.543-0.37l0.555-1.427
		c0.08-0.205,0.314-0.431,0.521-0.503l1.764-0.769c0.194-0.103,0.516-0.115,0.717-0.027l1.317,0.579
		c0.201,0.088,0.492,0.034,0.647-0.121l1.364-1.353c0.155-0.154,0.21-0.445,0.122-0.646l-0.618-1.404
		c-0.088-0.201-0.082-0.526,0.014-0.723l0.698-1.772c0.065-0.209,0.278-0.446,0.482-0.526L21.645,11.877z"/>
</g>
</svg>
