<?xml version="1.0" encoding="utf-8"?>
<!-- Generator: Adobe Illustrator 16.2.1, SVG Export Plug-In . SVG Version: 6.00 Build 0)  -->
<!DOCTYPE svg PUBLIC "-//W3C//DTD SVG 1.1//EN" "http://www.w3.org/Graphics/SVG/1.1/DTD/svg11.dtd">
<svg version="1.1" id="Layer_1" xmlns="http://www.w3.org/2000/svg" xmlns:xlink="http://www.w3.org/1999/xlink" x="0px" y="0px"
	 width="83px" height="82px" viewBox="0 0 83 82" enable-background="new 0 0 83 82" xml:space="preserve">
<g>
	<g>
		<path fill="#493D34" d="M30.807,33.779c-0.039-0.013-0.066-0.002-0.062,0.023c0.004,0.026,0.03,0.062,0.053,0.019
			c0,0,0,0,0.009-0.044C30.807,33.779,30.807,33.779,30.807,33.779z"/>
	</g>
	<g>
		<polygon fill="#493D34" points="30.732,33.75 30.728,33.749 30.732,33.754 		"/>
	</g>
	<g>
		<path fill="#493D34" d="M46.65,36.676c-0.001-0.003-0.004-0.002-0.005,0.004c-0.001,0.006,0.001,0.012,0.005,0.013
			S46.652,36.68,46.65,36.676z"/>
	</g>
	<g>
		<path fill="#493D34" d="M30.763,34.011c0.009-0.045,0.009-0.045,0.009-0.045c-0.009-0.036-0.017-0.062-0.019-0.059
			S30.756,33.957,30.763,34.011L30.763,34.011z"/>
	</g>
	<g>
		<path fill="#493D34" d="M31,33.752c0-0.001,0-0.004,0-0.006s-0.209-0.055-0.298-0.116s-1.002-0.254-1.669-0.376l-2.889-0.525
			c-0.667-0.123-1.375-0.286-1.553-0.363c-0.178-0.077-0.362,0.401-0.294,0.62c0.068,0.219,0.977,0.557,1.644,0.679l2.854,0.525
			c0.667,0.123,1.349,0.185,1.518,0.137c0.168-0.047,0.572-0.445,0.566-0.483C30.873,33.806,31,33.753,31,33.752z"/>
	</g>
	<g>
		<path fill="#493D34" d="M52.303,37.976c0.008-0.043,0.008-0.043,0.008-0.043c0.001-0.037,0-0.06-0.003-0.051
			S52.3,37.944,52.303,37.976C52.304,37.975,52.304,37.975,52.303,37.976z"/>
	</g>
	<g>
		<g>
			<path fill="#493D34" d="M67.451,34.341c-0.577-0.356-1.138-1.195-1.246-1.865l-1.337-5.695c-0.206-0.646-0.065-1.635,0.313-2.197
				l2.555-3.801c0.378-0.562,0.373-1.479-0.012-2.038l-3.378-4.894c-0.385-0.558-1.24-0.889-1.901-0.734l-4.722,1.103
				c-0.661,0.154-1.651-0.044-2.201-0.44l-4.887-3.017c-0.603-0.311-1.21-1.108-1.351-1.772l-0.928-4.379
				c-0.141-0.663-0.801-1.307-1.468-1.429l-5.845-1.075c-0.667-0.123-1.513,0.243-1.88,0.813l-2.569,3.987
				c-0.367,0.57-1.216,1.122-1.886,1.226l-5.641,1.311c-0.647,0.202-1.636,0.056-2.197-0.325l-3.717-2.524
				c-0.561-0.381-1.478-0.379-2.038,0.004l-4.901,3.353c-0.56,0.383-0.89,1.236-0.733,1.896l1.098,4.639
				c0.156,0.66-0.044,1.646-0.446,2.193l-3.098,4.969c-0.316,0.6-1.12,1.196-1.785,1.326l-4.541,0.884
				c-0.666,0.13-1.31,0.782-1.431,1.449l-1.068,5.846c-0.122,0.667,0.25,1.506,0.826,1.864l4.138,2.575
				c0.576,0.358,1.134,1.199,1.241,1.869l1.355,5.759c0.206,0.646,0.062,1.634-0.319,2.195l-2.447,3.602
				c-0.381,0.561-0.381,1.479-0.001,2.041l3.337,4.919c0.38,0.562,1.231,0.891,1.891,0.733l4.541-1.09
				c0.659-0.158,1.646,0.042,2.191,0.443l5.087,3.169c0.6,0.315,1.196,1.118,1.325,1.784l0.842,4.375
				c0.128,0.666,0.779,1.313,1.445,1.439l5.841,1.099c0.666,0.126,1.502-0.244,1.858-0.821l2.489-4.036
				c0.356-0.577,1.195-1.136,1.865-1.241l5.798-1.348c0.647-0.205,1.635-0.061,2.197,0.319l3.688,2.496
				c0.562,0.381,1.479,0.379,2.039-0.004l4.907-3.351c0.56-0.382,0.89-1.235,0.733-1.895l-1.096-4.617
				c-0.157-0.66,0.047-1.643,0.454-2.186l3.149-5.005c0.321-0.597,1.128-1.19,1.794-1.318l4.542-0.87
				c0.666-0.127,1.312-0.777,1.434-1.444l1.074-5.843c0.123-0.667-0.249-1.504-0.826-1.86L67.451,34.341z M52.854,48.639
				c-0.123,0.667-0.234,1.482-0.247,1.812s-1.129,0.396-1.796,0.273l-29.524-5.432c-0.667-0.123-1.287-0.391-1.378-0.595
				c-0.091-0.205,0.028-1.424,0.151-2.091l3.097-16.84c0.123-0.667,0.23-1.18,0.239-1.141s0.772,0.21,1.211,0.291
				c0.439,0.081,0.726-0.076,0.637-0.349s-0.071-0.987,0.001-1.376c0.072-0.389,0.369-0.811,0.661-0.938
				c0.292-0.127,1.452-0.06,2.119,0.062l1.776,0.327c0.667,0.123,1.366,0.307,1.553,0.41c0.187,0.103,0.208,0.899,0.137,1.289
				s-0.188,0.946-0.26,1.239c-0.071,0.292,0.588,0.663,1.255,0.786l14.708,2.706c0.667,0.123,1.235,0.018,1.263-0.233
				c0.028-0.251,0.141-0.947,0.212-1.336c0.071-0.39,0.281-0.828,0.467-0.975c0.186-0.146,1.223-0.102,1.89,0.021l1.778,0.328
				c0.667,0.123,1.11,0.255,0.984,0.294c-0.125,0.039-0.363,0.806-0.435,1.195c-0.071,0.388,0.068,0.992,0.311,1.342
				c0.242,0.35,0.945,0.729,1.353,0.803c0.408,0.075,0.852,0.027,0.987-0.106c0.136-0.133,0.069,0.727-0.053,1.394L52.854,48.639z"
				/>
		</g>
	</g>
	<g>
		<path fill="#493D34" d="M52.347,37.742c-0.021-0.006-0.037,0.008-0.036,0.031c0.002,0.023,0.013,0.055,0.026,0.01
			C52.338,37.783,52.338,37.783,52.347,37.742L52.347,37.742z"/>
	</g>
	<g>
		<path fill="#493D34" d="M52.267,37.717c-0.002,0-0.003-0.005-0.002-0.011c0.001-0.005,0.002-0.007,0.003-0.003
			c0.001,0.003,0.007,0.016,0.012,0.018s0-0.037-0.035-0.094c-0.036-0.056-0.607-0.201-1.038-0.281s-0.697-0.616-0.591-1.192
			s0.181-1.276,0.166-1.554c0,0,0,0-0.348-0.064c-0.349-0.063-0.349-0.063-0.349-0.063c-0.118,0.254-0.3,0.933-0.406,1.509
			c-0.106,0.576-0.646,0.964-1.2,0.863c-0.554-0.101-1.129-0.191-1.277-0.199c-0.148-0.009-0.333,0.375-0.265,0.563
			c0.068,0.189,0.816,0.469,1.37,0.571c0.554,0.103,0.946,0.521,0.87,0.929s-0.121,0.972-0.102,1.25c0,0,0,0,0.349,0.065
			c0.348,0.062,0.348,0.062,0.348,0.062c0.112-0.254,0.266-0.796,0.342-1.205s0.49-0.678,0.921-0.599
			c0.431,0.08,0.872,0.096,0.979,0.035c0.107-0.061,0.279-0.436,0.273-0.48S52.269,37.717,52.267,37.717z"/>
	</g>
</g>
</svg>
