<?xml version="1.0" encoding="utf-8"?>
<!-- Generator: Adobe Illustrator 16.2.1, SVG Export Plug-In . SVG Version: 6.00 Build 0)  -->
<!DOCTYPE svg PUBLIC "-//W3C//DTD SVG 1.1//EN" "http://www.w3.org/Graphics/SVG/1.1/DTD/svg11.dtd">
<svg version="1.1" id="Layer_1" xmlns="http://www.w3.org/2000/svg" xmlns:xlink="http://www.w3.org/1999/xlink" x="0px" y="0px"
	 width="83px" height="82px" viewBox="0 0 83 82" enable-background="new 0 0 83 82" xml:space="preserve">
<g>
	<g>
		<path fill="#493D34" d="M-325.341,254.734c-0.039-0.014-0.068-0.003-0.063,0.023c0.004,0.027,0.031,0.064,0.054,0.02
			c0,0,0,0,0.01-0.045C-325.341,254.734-325.341,254.734-325.341,254.734z"/>
	</g>
	<g>
		<polygon fill="#493D34" points="-325.417,254.705 -325.422,254.704 -325.417,254.709 		"/>
	</g>
	<g>
		<path fill="#493D34" d="M-309.185,257.689c-0.001-0.005-0.004-0.003-0.005,0.004c-0.001,0.006,0.001,0.012,0.005,0.012
			C-309.181,257.706-309.183,257.693-309.185,257.689z"/>
	</g>
	<g>
		<path fill="#493D34" d="M-325.386,254.971c0.009-0.046,0.009-0.046,0.009-0.046c-0.009-0.036-0.017-0.063-0.019-0.06
			C-325.397,254.868-325.393,254.916-325.386,254.971L-325.386,254.971z"/>
	</g>
	<g>
		<path fill="#493D34" d="M-325,254.707c0-0.001,0-0.004,0-0.006c0-0.003-0.286-0.057-0.376-0.119s-1.058-0.259-1.738-0.384
			l-2.964-0.535c-0.68-0.125-1.412-0.292-1.593-0.37s-0.374,0.409-0.304,0.633s0.995,0.567,1.674,0.692l2.909,0.535
			c0.68,0.125,1.375,0.188,1.547,0.14s0.656-0.453,0.65-0.492S-325,254.708-325,254.707z"/>
	</g>
	<g>
		<path fill="#493D34" d="M-303.42,259.015c0.008-0.044,0.008-0.044,0.008-0.044c0.001-0.038,0-0.062-0.003-0.052
			S-303.423,258.981-303.42,259.015C-303.419,259.014-303.419,259.014-303.42,259.015z"/>
	</g>
	<g>
		<g>
			<path fill="#493D34" d="M-287.973,255.308c-0.588-0.363-1.16-1.219-1.271-1.901l-1.364-5.808c-0.21-0.658-0.066-1.667,0.32-2.24
				l2.605-3.876c0.386-0.573,0.38-1.509-0.012-2.078l-3.445-4.99c-0.393-0.569-1.265-0.906-1.938-0.749l-4.815,1.124
				c-0.673,0.157-1.683-0.045-2.244-0.448l-4.984-3.076c-0.614-0.317-1.234-1.131-1.377-1.807l-0.946-4.467
				c-0.143-0.676-0.817-1.332-1.497-1.457l-5.961-1.097c-0.68-0.125-1.542,0.248-1.917,0.829l-2.619,4.065
				c-0.375,0.581-1.24,1.144-1.923,1.25l-5.753,1.337c-0.66,0.206-1.668,0.057-2.24-0.331l-3.79-2.575
				c-0.572-0.388-1.507-0.387-2.078,0.004l-4.998,3.42c-0.571,0.391-0.907,1.261-0.748,1.934l1.12,4.73
				c0.159,0.673-0.046,1.68-0.456,2.236l-3.159,5.066c-0.322,0.612-1.142,1.221-1.82,1.353l-4.631,0.902
				c-0.679,0.132-1.335,0.797-1.459,1.477l-1.089,5.963c-0.124,0.68,0.255,1.535,0.842,1.9l4.22,2.626
				c0.587,0.365,1.156,1.223,1.265,1.905l1.382,5.873c0.21,0.659,0.063,1.666-0.325,2.238l-2.495,3.674
				c-0.389,0.572-0.389,1.508-0.001,2.08l3.403,5.018c0.388,0.572,1.256,0.908,1.928,0.747l4.63-1.112
				c0.672-0.161,1.678,0.043,2.235,0.452l5.188,3.231c0.612,0.322,1.22,1.141,1.351,1.819l0.859,4.462
				c0.131,0.679,0.794,1.339,1.473,1.467l5.956,1.121c0.679,0.128,1.532-0.249,1.896-0.838l2.538-4.115
				c0.363-0.589,1.219-1.158,1.902-1.266l5.913-1.375c0.659-0.208,1.667-0.062,2.24,0.326l3.761,2.545
				c0.572,0.388,1.508,0.386,2.079-0.004l5.004-3.418c0.571-0.39,0.907-1.26,0.748-1.933l-1.118-4.707
				c-0.16-0.673,0.048-1.677,0.463-2.23l3.212-5.104c0.328-0.609,1.151-1.214,1.83-1.344l4.632-0.888
				c0.679-0.13,1.337-0.793,1.462-1.473l1.096-5.959c0.125-0.68-0.254-1.533-0.842-1.896L-287.973,255.308z M-302.858,269.889
				c-0.125,0.68-0.238,1.512-0.251,1.848s-1.152,0.403-1.832,0.278l-30.107-5.539c-0.68-0.125-1.312-0.398-1.405-0.606
				c-0.093-0.209,0.029-1.453,0.154-2.133l3.158-17.174c0.125-0.68,0.235-1.203,0.244-1.163s0.787,0.215,1.235,0.297
				s0.74-0.078,0.65-0.355s-0.072-1.006,0.001-1.403c0.073-0.396,0.376-0.826,0.674-0.956s1.481-0.061,2.161,0.064l1.812,0.332
				c0.68,0.125,1.393,0.313,1.583,0.418s0.212,0.918,0.139,1.314s-0.192,0.966-0.265,1.263c-0.072,0.298,0.601,0.677,1.28,0.802
				l14.998,2.759c0.68,0.125,1.26,0.018,1.288-0.238s0.144-0.966,0.216-1.362s0.287-0.844,0.476-0.993s1.248-0.104,1.928,0.021
				l1.813,0.334c0.68,0.125,1.131,0.26,1.003,0.3s-0.371,0.822-0.443,1.219c-0.073,0.396,0.07,1.012,0.316,1.368
				s0.964,0.743,1.38,0.819s0.869,0.027,1.007-0.107c0.138-0.136,0.071,0.74-0.054,1.42L-302.858,269.889z"/>
		</g>
	</g>
	<g>
		<path fill="#493D34" d="M-303.375,258.775c-0.021-0.007-0.038,0.008-0.036,0.032s0.012,0.057,0.026,0.011
			C-303.385,258.818-303.385,258.818-303.375,258.775L-303.375,258.775z"/>
	</g>
	<g>
		<path fill="#493D34" d="M-303.457,258.75c-0.002,0-0.003-0.005-0.002-0.011s0.002-0.008,0.003-0.003
			c0.001,0.004,0.007,0.016,0.012,0.018s0-0.037-0.036-0.096c-0.036-0.058-0.619-0.205-1.059-0.286s-0.711-0.628-0.603-1.216
			s0.185-1.301,0.169-1.585c0,0,0,0-0.354-0.065c-0.356-0.064-0.356-0.064-0.356-0.064c-0.12,0.259-0.306,0.951-0.414,1.539
			c-0.108,0.587-0.659,0.982-1.224,0.879c-0.565-0.103-1.151-0.194-1.303-0.203s-0.339,0.383-0.27,0.575s0.832,0.479,1.396,0.583
			s0.964,0.53,0.888,0.947s-0.124,0.99-0.104,1.275c0,0,0,0,0.355,0.066c0.354,0.062,0.354,0.062,0.354,0.062
			c0.115-0.259,0.272-0.812,0.349-1.229s0.5-0.691,0.939-0.61s0.889,0.097,0.998,0.035s0.285-0.444,0.278-0.489
			S-303.455,258.75-303.457,258.75z"/>
	</g>
</g>
<g>
	<g>
		<path fill="#493D34" d="M66.729,33.886c-0.567-0.36-1.109-1.199-1.204-1.865l-1.259-5.609c-0.192-0.644-0.04-1.625,0.34-2.18
			l2.575-3.769c0.379-0.555,0.378-1.462-0.002-2.016l-3.324-4.842c-0.38-0.554-1.228-0.882-1.882-0.729l-4.667,1.094
			c-0.654,0.153-1.649-0.023-2.21-0.393l-4.831-2.83c-0.61-0.282-1.23-1.049-1.378-1.704L47.96,4.943
			c-0.148-0.655-0.81-1.292-1.471-1.413l-5.793-1.067c-0.661-0.122-1.506,0.237-1.877,0.797l-2.473,3.726
			c-0.372,0.56-1.221,1.09-1.887,1.179l-5.557,1.227c-0.646,0.187-1.626,0.027-2.179-0.355L23.04,6.486
			c-0.553-0.382-1.459-0.386-2.016-0.008l-4.85,3.299c-0.556,0.378-0.884,1.222-0.729,1.876l1.088,4.584
			c0.155,0.654-0.044,1.632-0.442,2.173l-3.065,4.916c-0.314,0.595-1.11,1.186-1.77,1.314l-4.501,0.874
			c-0.66,0.128-1.298,0.774-1.419,1.435l-1.058,5.793c-0.121,0.661,0.247,1.493,0.818,1.848l4.103,2.553
			c0.571,0.355,1.124,1.188,1.23,1.853l1.34,5.708c0.204,0.641,0.062,1.62-0.315,2.176L9.03,50.45c-0.377,0.556-0.377,1.466,0,2.022
			l3.308,4.873c0.377,0.556,1.221,0.883,1.875,0.727l4.5-1.078c0.654-0.157,1.631,0.042,2.172,0.44l5.042,3.14
			c0.595,0.312,1.186,1.108,1.313,1.769l0.836,4.337c0.127,0.66,0.772,1.302,1.433,1.426l5.789,1.09
			c0.661,0.124,1.49-0.242,1.843-0.814l2.466-3.999c0.353-0.572,1.185-1.126,1.849-1.23l5.747-1.337
			c0.641-0.203,1.621-0.06,2.177,0.317l3.655,2.475c0.556,0.377,1.466,0.375,2.021-0.004l4.863-3.322
			c0.555-0.379,0.882-1.225,0.727-1.878l-1.085-4.576c-0.155-0.654,0.03-1.642,0.412-2.195l2.975-4.954
			c0.294-0.604,1.074-1.208,1.732-1.343l4.282-0.874c0.658-0.135,1.297-0.786,1.418-1.447l1.064-5.792
			c0.122-0.661-0.243-1.497-0.811-1.857L66.729,33.886z M53.243,36.307c-1.116-1.32-3.786-4.458-3.786-4.458
			c-0.436-0.512-0.908-0.932-1.051-0.933s-0.79,0.23-1.304,0.663l-4.958,4.176c-0.514,0.433-0.639,1.251-0.278,1.818
			c0,0,3.729,5.856,4.105,6.188c1.532,1.359,2.102,0.317,4.205,2.637c1.503,1.655-0.451,6.151-0.451,6.151
			c-0.268,0.616-0.611,0.585-0.764-0.07c0,0-0.64-2.759-1.401-3.24c-1.872-1.186-4.088,0.509-4.395,1.346
			c-0.333,0.919,0.706,3.62,0.706,3.62c0.241,0.627,0.025,0.778-0.48,0.335c0,0-3.525-3.093-3.771-4.003
			c-0.54-2.005,0.731-2.512,0.197-3.923c-0.452-1.203-2.682-5.069-2.682-5.069c-0.336-0.582-1.032-0.705-1.546-0.271
			c0,0-10.095,8.498-11.362,9.549c-0.899,0.743-4.264-3.406-3.394-4.144c0.477-0.402,11.913-10.027,11.913-10.027
			c0.514-0.433,0.636-1.249,0.271-1.813c0,0-2.576-3.976-3.102-4.631c-1.455-1.821-2.979-2.484-3.751-2.857
			c-4.369-2.097-1.448-7.205-1.448-7.205c0.334-0.583,0.699-0.519,0.811,0.144c0,0,0.387,2.291,1.508,2.901
			c1.155,0.621,4.133-0.269,4.305-1.11c0.294-1.396-0.54-3.409-0.54-3.409c-0.257-0.621-0.031-0.794,0.503-0.386
			c0,0,3.273,2.506,3.623,4.23c0.207,1.015-0.81,2.721,0.379,4.562c0.217,0.336,2.388,3.834,2.388,3.834
			c0.354,0.571,1.065,0.685,1.58,0.252l4.552-3.831c0.515-0.432,0.982-0.884,1.04-1.003s-0.061-0.417-0.076-0.434
			s-0.058-0.139-0.095-0.269s0.505-0.781,0.993-1.244c0,0,0.483-0.458,1.096-0.964c0.55-0.459,1-0.782,1-0.782
			c0.546-0.391,1.206-0.764,1.465-0.829c0,0,0,0,0.139,0.164c0.139,0.167,0.353,0.218,0.593,0.028
			c0.288-0.229,0.848-0.771,1.205-0.73c0.479,0.05,1.903,3.796,1.903,3.796c0.239,0.628,0.527,1.227,0.64,1.33
			s0.26,0.869,0.683,1.391c0,0,2.719,3.361,3.669,4.51C58.545,32.861,53.606,36.74,53.243,36.307z"/>
	</g>
</g>
</svg>
